<svg xmlns="http://www.w3.org/2000/svg" xmlns:xlink="http://www.w3.org/1999/xlink" viewBox="0 0 24 30" version="1.1" x="0px" y="0px"><title>payment_023-wallet-money-balance-delete-remove</title><desc>Created with Sketch.</desc><g stroke="none" stroke-width="1" fill="none" fill-rule="evenodd"><g transform="translate(-141.000000, -141.000000)" fill="#000000"><g transform="translate(142.000000, 142.000000)"><path d="M6.94949137,19 L20.0092049,19 C21.1017876,19 22,18.1082031 22,17.0081158 L22,5.99188419 C22,4.89339733 21.1086907,4 20.0092049,4 L3.99079514,4 C2.89821238,4 2,4.89179693 2,5.99188419 L2,14.0505086 C2.28706025,13.7575665 2.62519762,13.5148648 3,13.3368156 L3,5.99188419 C3,5.44687492 3.44770034,5 3.99079514,5 L20.0092049,5 C20.555607,5 21,5.44488287 21,5.99188419 L21,17.0081158 C21,17.5531251 20.5522997,18 20.0092049,18 L7.66318442,18 C7.48513523,18.3748024 7.24243351,18.7129397 6.94949137,19 Z"/><path d="M22,9 L17.5093004,9 C16.1123657,9 15,10.1192881 15,11.5 C15,12.8903379 16.123452,14 17.5093004,14 L22,14 L22,13 L17.5093004,13 C16.6709686,13 16,12.3332962 16,11.5 C16,10.6678936 16.6683324,10 17.5093004,10 L22,10 L22,9 Z"/><path d="M17.7467105,1.46510078 C18.4630794,1.28165895 18.9954565,1.6993113 18.9926514,2.44033312 L18.9850362,4.45205882 L18.9831435,4.95205524 L19.9831363,4.95584064 L19.985029,4.45584422 L19.9926443,2.44411852 C19.9979208,1.05022013 18.8506178,0.150155505 17.4986429,0.496358058 L3.53059544,4.07318003 L2.83251816,5.2842037 L17.7467105,1.46510078 Z"/><path d="M4.5,21 C6.98528137,21 9,18.9852814 9,16.5 C9,14.0147186 6.98528137,12 4.5,12 C2.01471863,12 0,14.0147186 0,16.5 C0,18.9852814 2.01471863,21 4.5,21 Z M4.5,20 C6.43299662,20 8,18.4329966 8,16.5 C8,14.5670034 6.43299662,13 4.5,13 C2.56700338,13 1,14.5670034 1,16.5 C1,18.4329966 2.56700338,20 4.5,20 Z"/><rect x="2" y="16" width="5" height="1"/></g></g></g><text x="0" y="39" fill="#000000" font-size="5px" font-weight="bold" font-family="'Helvetica Neue', Helvetica, Arial-Unicode, Arial, Sans-serif">Created by Pham Thi Dieu Linh</text><text x="0" y="44" fill="#000000" font-size="5px" font-weight="bold" font-family="'Helvetica Neue', Helvetica, Arial-Unicode, Arial, Sans-serif">from the Noun Project</text></svg>